<svg width="60" height="69" viewBox="0 0 60 69" fill="none" xmlns="http://www.w3.org/2000/svg">
<path fill-rule="evenodd" clip-rule="evenodd" d="M28 27.6291L31.7375 29.5245L35.8818 31.2979L35.8847 13.8458L31.9443 11.4299L31.9418 2.31813L28.0561 0L28 27.6291Z" fill="#1A557E"/>
<path fill-rule="evenodd" clip-rule="evenodd" d="M14.2676 50.1822C23.7136 52.5009 39.8271 51.8171 48.7242 48.3044C51.0824 47.3733 55.1116 45.2915 54.6105 42.2251C54.2386 39.9492 50.214 37.507 47.635 36.9526C48.5309 37.974 50.0324 38.6144 50.2472 40.8465C50.7045 45.6086 42.3124 48.0717 38.6409 48.9455C32.9899 50.2911 26.4519 50.7329 20.5627 50.5548C18.5045 50.4926 16.2085 50.1525 14.2677 50.182L14.2676 50.1822Z" fill="#1A557E"/>
<path fill-rule="evenodd" clip-rule="evenodd" d="M5.34766 46.924C14.3128 50.2016 35.4165 50.2027 44.6992 45.5025C51.6558 41.9806 48.3776 38.5012 45.8148 37.5679C46.7509 39.7056 46.5782 40.8382 45.1209 42.2757C38.9457 48.3682 20.1095 48.8097 11.3244 47.8127C9.31053 47.5842 7.18468 47.0655 5.34782 46.9241L5.34766 46.924Z" fill="#1A557E"/>
<path fill-rule="evenodd" clip-rule="evenodd" d="M26.4208 28.0417L18.5391 31.7105L18.5361 14.2584L22.4765 11.8425L22.479 2.73072L26.3651 0.412598L26.4208 28.0417Z" fill="#1A557E"/>
<path fill-rule="evenodd" clip-rule="evenodd" d="M8.53906 45.5656L26.4208 37.2413V35.2363L8.53906 43.5606V45.5656Z" fill="#1A557E"/>
<path fill-rule="evenodd" clip-rule="evenodd" d="M8.53906 42.0009L26.4208 33.6767V29.667L8.53906 37.9916V42.0009Z" fill="#1A557E"/>
<path fill-rule="evenodd" clip-rule="evenodd" d="M35.1168 40.3226L41.9938 43.5243C42.7645 43.2981 43.4502 42.9281 44.0023 42.4543L35.241 38.3758L28.4971 35.2363V37.2413L35.1168 40.3224V40.3226Z" fill="#1A557E"/>
<path fill-rule="evenodd" clip-rule="evenodd" d="M40.7495 35.3706L28.4971 29.667V33.6768L35.9648 37.1531L44.9407 41.3315C45.2487 40.7936 45.4205 40.1939 45.4205 39.5618C45.4205 38.6346 45.0507 37.7776 44.4247 37.0819L40.7495 35.3708V35.3706Z" fill="#1A557E"/>
<path fill-rule="evenodd" clip-rule="evenodd" d="M24.7832 40.7651H27.0183V42.9454H24.7832V40.7651ZM27.8512 40.7651H30.0863V42.9454H27.8512V40.7651ZM24.7832 43.6981H27.0183V45.8784H24.7832V43.6981ZM27.8512 43.6981H30.0863V45.8784H27.8512V43.6981Z" fill="#1A557E"/>
<path d="M0.00015861 68.3522H1.88128L2.8285 62.4627L1.41782 59.7892L0 68.3524L0.00015861 68.3522ZM12.2558 55.1338L7.2239 64.8939L2.18882 55.1338L1.7049 58.0563L7.2239 68.6601L12.7432 58.0699L12.2556 55.1338H12.2558ZM13.02 59.7336L11.616 62.4452L12.564 68.3522H14.4488L13.0201 59.7337L13.02 59.7336Z" fill="#1A557E"/>
<path fill-rule="evenodd" clip-rule="evenodd" d="M56.4004 64.6808H52.0751L54.2501 59.6963L56.4004 64.6808ZM54.2415 55.479L48.4883 68.3516H50.4298L51.4069 66.1523H57.0723L58.0493 68.3516H60.0002L54.2414 55.479H54.2415Z" fill="#1A557E"/>
<path fill-rule="evenodd" clip-rule="evenodd" d="M30.8007 61.8529H30.7916V56.7656H32.9717C33.755 56.7656 34.5669 56.9296 35.1479 57.4927L35.1561 57.5003L35.1629 57.5079C35.6329 58 35.8908 58.5948 35.8908 59.2769C35.8908 59.9671 35.6567 60.5814 35.1864 61.087C34.716 61.592 34.1226 61.8618 33.4312 61.8618H31.9124V61.8529H31.5814L35.8023 68.3513H38.0558L34.8706 63.3921L35.4914 63.1478C36.0987 62.9092 36.6006 62.5376 36.979 62.0047C37.4999 61.2727 37.7906 60.4648 37.7906 59.5651V59.1881C37.7906 58.6229 37.7154 58.0254 37.4747 57.5082C37.265 57.0595 36.9016 56.639 36.5527 56.2932C35.6166 55.3643 34.4625 54.9785 33.1522 54.9785H28.9805L28.9884 68.3513H30.8005V61.8529H30.8007Z" fill="#1A557E"/>
<path fill-rule="evenodd" clip-rule="evenodd" d="M40.3583 66.2859L39.4453 67.8642C40.2162 68.2948 41.0566 68.4957 41.9571 68.5047H42.0467C43.4821 68.4828 44.7017 67.9793 45.7272 66.9738C46.7737 65.9466 47.2784 64.7096 47.2784 63.2443V60.2807L47.2285 54.9862L45.4167 54.98L45.4668 60.3185V63.2259C45.4668 64.1663 45.121 64.9817 44.466 65.6544C43.8044 66.3344 42.9874 66.6931 42.0362 66.6931H41.975C41.39 66.6931 40.8474 66.5582 40.3583 66.2857V66.2859Z" fill="#1A557E"/>
<path fill-rule="evenodd" clip-rule="evenodd" d="M23.7034 64.6808H19.3781L21.5535 59.6963L23.7033 64.6808H23.7034ZM21.5449 55.479L15.791 68.3516H17.7329L18.7104 66.1523H24.3755L25.3525 68.3516H27.3034L21.5449 55.479Z" fill="#1A557E"/>
</svg>
